<?xml version="1.0" standalone="no"?><!DOCTYPE svg PUBLIC "-//W3C//DTD SVG 1.1//EN" "http://www.w3.org/Graphics/SVG/1.1/DTD/svg11.dtd"><svg t="1752328168447" class="icon" viewBox="0 0 1024 1024" version="1.1" xmlns="http://www.w3.org/2000/svg" p-id="5988" xmlns:xlink="http://www.w3.org/1999/xlink" width="200" height="200"><path d="M352.0512 418.9184a150.8352 150.8352 0 0 0-150.6304 150.6304v180.6848a150.8352 150.8352 0 0 0 150.6304 150.6304h267.008a150.8352 150.8352 0 0 0 150.6304-150.6304V569.5488a150.8352 150.8352 0 0 0-150.6304-150.6304H352.0512zM619.0592 972.8H352.0512a222.8224 222.8224 0 0 1-222.5664-222.5664V569.5488a222.8224 222.8224 0 0 1 222.5664-222.5664h267.008a222.8224 222.8224 0 0 1 222.5664 222.5664v180.6848A222.8224 222.8224 0 0 1 619.0592 972.8zM35.9424 810.9568A35.9936 35.9936 0 0 1 0 774.9632V544.768a35.9936 35.9936 0 0 1 71.936 0v230.1952a35.9936 35.9936 0 0 1-35.9936 35.9936M935.1168 810.9568a35.9936 35.9936 0 0 1-35.9424-35.9936V544.768a35.9936 35.9936 0 0 1 71.936 0v230.1952a35.9936 35.9936 0 0 1-35.9936 35.9936M496.3328 246.272a71.936 71.936 0 1 1 0-143.872 71.936 71.936 0 0 1 0 143.872" fill="#246EFF" p-id="5989"></path><path d="M460.3904 346.9824h71.936v-129.536H460.3904zM410.0096 666.1632a57.5488 57.5488 0 1 1-115.0976 0 57.5488 57.5488 0 0 1 115.0976 0M670.7712 666.1632a57.5488 57.5488 0 1 1-115.0976 0 57.5488 57.5488 0 0 1 115.0976 0" fill="#246EFF" p-id="5990"></path></svg>