<?xml version="1.0" standalone="no"?><!DOCTYPE svg PUBLIC "-//W3C//DTD SVG 1.1//EN" "http://www.w3.org/Graphics/SVG/1.1/DTD/svg11.dtd"><svg t="1750837847829" class="icon" viewBox="0 0 1024 1024" version="1.1" xmlns="http://www.w3.org/2000/svg" p-id="8383" xmlns:xlink="http://www.w3.org/1999/xlink" width="128" height="128"><path d="M512 106.666667A192 192 0 0 1 704 298.666667v149.333333h-384V298.666667A192 192 0 0 1 512 106.666667z m234.666667 341.333333V298.666667a234.666667 234.666667 0 0 0-469.333334 0v149.333333H170.666667A64 64 0 0 0 106.666667 512v384A64 64 0 0 0 170.666667 960h682.666666a64 64 0 0 0 64-64v-384a64 64 0 0 0-64-64h-106.666666zM170.666667 490.666667h682.666666a21.333333 21.333333 0 0 1 21.333334 21.333333v384a21.333333 21.333333 0 0 1-21.333334 21.333333H170.666667a21.333333 21.333333 0 0 1-21.333334-21.333333v-384a21.333333 21.333333 0 0 1 21.333334-21.333333z m341.333333 128a21.333333 21.333333 0 0 1 21.333333 21.333333v128a21.333333 21.333333 0 0 1-42.666666 0v-128a21.333333 21.333333 0 0 1 21.333333-21.333333z" fill="#333333" p-id="8384"></path></svg>