<?xml version="1.0" standalone="no"?><!DOCTYPE svg PUBLIC "-//W3C//DTD SVG 1.1//EN" "http://www.w3.org/Graphics/SVG/1.1/DTD/svg11.dtd"><svg t="1751203208219" class="icon" viewBox="0 0 1024 1024" version="1.1" xmlns="http://www.w3.org/2000/svg" p-id="15768" xmlns:xlink="http://www.w3.org/1999/xlink" width="200" height="200"><path d="M531.779963 166.800582L403.7642 38.956818a132.469756 132.469756 0 0 0-187.652654 0L88.270782 166.801582a132.469756 132.469756 0 0 0 0 188.507652l127.842764 128.014764a132.812755 132.812755 0 0 0 188.509652 0l128.013764-128.014764a132.812755 132.812755 0 0 0-0.856999-188.507652z m-175.484676 267.339507a66.319878 66.319878 0 0 1-93.739827 0L135.910694 307.495322a66.319878 66.319878 0 0 1 0-93.739827L262.55446 87.282729a65.977878 65.977878 0 0 1 93.739827 0l126.643767 126.471766a66.319878 66.319878 0 0 1 0 93.739827z m486.180103 143.608735H661.507724a132.469756 132.469756 0 0 0-132.299756 132.641755v180.796666a132.641755 132.641755 0 0 0 132.641755 132.641755h180.625667a132.812755 132.812755 0 0 0 132.299756-132.641755V710.390579a132.641755 132.641755 0 0 0-132.299756-132.641755z" p-id="15769"></path><path d="M416.446176 760.602486a66.319878 66.319878 0 0 1-66.319877-66.320877V515.369939a69.405872 69.405872 0 0 1 1.198998-11.995978h-67.519876v191.592646a132.812755 132.812755 0 0 0 132.640755 132.641755H578.049878v-67.005876z" p-id="15770"></path></svg>