<?xml version="1.0" standalone="no"?><!DOCTYPE svg PUBLIC "-//W3C//DTD SVG 1.1//EN" "http://www.w3.org/Graphics/SVG/1.1/DTD/svg11.dtd"><svg t="1751201115940" class="icon" viewBox="0 0 1106 1024" version="1.1" xmlns="http://www.w3.org/2000/svg" p-id="9487" xmlns:xlink="http://www.w3.org/1999/xlink" width="216.015625" height="200"><path d="M929.194271 845.904556H663.710379l-132.741945 178.095444L398.226488 845.904556h-221.236576A177.509818 177.509818 0 0 1 0.000651 667.809112V178.095444A177.509818 177.509818 0 0 1 176.989912 0h752.204359A177.509818 177.509818 0 0 1 1106.183532 178.095444v489.713668A177.509818 177.509818 0 0 1 929.194271 845.904556zM243.360885 356.190888A66.76139 66.76139 0 1 0 309.731857 422.952278a66.566182 66.566182 0 0 0-66.370972-66.82646z m309.731206 0A66.76139 66.76139 0 1 0 619.463064 422.952278 66.566182 66.566182 0 0 0 553.092091 356.125818z m309.731207 0A66.76139 66.76139 0 1 0 929.194271 422.952278a66.566182 66.566182 0 0 0-66.370973-66.82646z" fill="#7854A2" p-id="9488"></path></svg>