<svg width="48" height="48" viewBox="0 0 48 48" xmlns="http://www.w3.org/2000/svg">
  <!-- Main clipboard background -->
  <rect x="10" y="6" width="28" height="36" rx="3" ry="3" fill="#f8f9fa" stroke="#d1d5db" stroke-width="2"/>
  
  <!-- Clipboard clip -->
  <rect x="18" y="2" width="12" height="8" rx="2" ry="2" fill="#6b7280" stroke="#374151" stroke-width="1"/>
  <rect x="19" y="3" width="10" height="6" rx="1" ry="1" fill="#ffffff"/>
  
  <!-- Todo list items -->
  <!-- Item 1 - Completed -->
  <circle cx="16" cy="16" r="3" fill="#10b981" stroke="#059669" stroke-width="1"/>
  <path d="M14 16 L15.5 17.5 L18 14.5" stroke="#ffffff" stroke-width="2" stroke-linecap="round" stroke-linejoin="round" fill="none"/>
  <line x1="22" y1="16" x2="36" y2="16" stroke="#9ca3af" stroke-width="1.5" stroke-linecap="round"/>
  
  <!-- Item 2 - Completed -->
  <circle cx="16" cy="24" r="3" fill="#10b981" stroke="#059669" stroke-width="1"/>
  <path d="M14 24 L15.5 25.5 L18 22.5" stroke="#ffffff" stroke-width="2" stroke-linecap="round" stroke-linejoin="round" fill="none"/>
  <line x1="22" y1="24" x2="34" y2="24" stroke="#9ca3af" stroke-width="1.5" stroke-linecap="round"/>
  
  <!-- Item 3 - Pending (highlighted for future) -->
  <circle cx="16" cy="32" r="3" fill="#ffffff" stroke="#3b82f6" stroke-width="2"/>
  <line x1="22" y1="32" x2="38" y2="32" stroke="#374151" stroke-width="1.5" stroke-linecap="round"/>
  
  <!-- Item 4 - Pending -->
  <circle cx="16" cy="40" r="3" fill="#ffffff" stroke="#d1d5db" stroke-width="2"/>
  <line x1="22" y1="40" x2="35" y2="40" stroke="#d1d5db" stroke-width="1.5" stroke-linecap="round"/>
  
  <!-- Future indicator - small arrow or forward symbol -->
  <path d="M40 30 L44 32 L40 34" stroke="#3b82f6" stroke-width="2" fill="none" stroke-linecap="round" stroke-linejoin="round"/>
  
  <!-- Small decorative elements -->
  <circle cx="42" cy="18" r="1" fill="#3b82f6" opacity="0.3"/>
  <circle cx="44" cy="22" r="1" fill="#3b82f6" opacity="0.5"/>
</svg>