<?xml version="1.0" standalone="no"?><!DOCTYPE svg PUBLIC "-//W3C//DTD SVG 1.1//EN" "http://www.w3.org/Graphics/SVG/1.1/DTD/svg11.dtd"><svg t="1750504472971" class="icon" viewBox="0 0 1024 1024" version="1.1" xmlns="http://www.w3.org/2000/svg" p-id="9004" xmlns:xlink="http://www.w3.org/1999/xlink" width="200" height="200"><path d="M533.969455 134.050909a42.682182 42.682182 0 0 0-43.93891 0L81.687273 379.159273a21.317818 21.317818 0 0 0-7.307637 29.277091l21.922909 36.584727c6.050909 10.100364 19.176727 13.358545 29.323637 7.307636l375.389091-225.28a21.317818 21.317818 0 0 1 21.969454 0l375.435637 225.28c10.100364 6.050909 23.226182 2.792727 29.277091-7.307636l21.969454-36.584727a21.317818 21.317818 0 0 0-7.354182-29.323637l-408.343272-244.968727zM533.969455 560.733091a42.635636 42.635636 0 0 0-43.93891 0l-408.343272 245.015273a21.317818 21.317818 0 0 0-7.307637 29.323636l21.922909 36.538182c6.050909 10.100364 19.176727 13.405091 29.323637 7.354182l375.389091-225.28a21.317818 21.317818 0 0 1 21.969454 0l375.435637 225.28c10.100364 6.050909 23.226182 2.792727 29.277091-7.354182l21.969454-36.584727a21.317818 21.317818 0 0 0-7.354182-29.277091l-408.343272-245.015273z" fill="#333333" p-id="9005"></path></svg>