<?xml version="1.0" standalone="no"?><!DOCTYPE svg PUBLIC "-//W3C//DTD SVG 1.1//EN" "http://www.w3.org/Graphics/SVG/1.1/DTD/svg11.dtd"><svg t="1751112321047" class="icon" viewBox="0 0 1024 1024" version="1.1" xmlns="http://www.w3.org/2000/svg" p-id="3085" xmlns:xlink="http://www.w3.org/1999/xlink" width="200" height="200"><path d="M181.952 814.592q8.192 2.816 16.832 2.816 5.12 0 9.984-0.96 4.992-0.96 9.6-2.944 4.672-1.92 8.896-4.736 4.16-2.752 7.744-6.336 3.584-3.584 6.4-7.744 2.752-4.224 4.672-8.896 1.92-4.608 2.944-9.6 0.96-4.928 0.96-9.984 0-3.968-0.64-7.872-0.576-3.904-1.728-7.68-1.28-3.776-3.008-7.296-1.792-3.584-4.096-6.784-2.24-3.2-5.056-6.08-2.752-2.816-5.888-5.248-3.2-2.368-6.72-4.224-3.456-1.856-7.232-3.2-33.664-11.712-58.176-33.728-55.04-49.472-55.04-140.544 0-63.616 49.088-113.856 49.408-50.56 117.824-57.984 7.808-0.832 14.976-3.968 7.168-3.136 13.12-8.32 5.888-5.12 9.984-11.776t6.016-14.272q18.56-73.6 71.04-119.488Q438.592 166.4 512 166.4q73.344 0 127.616 47.488 52.352 45.888 70.976 119.488 1.92 7.616 6.016 14.272 4.096 6.656 9.984 11.84 5.952 5.12 13.12 8.32 7.168 3.072 14.976 3.904 68.416 7.488 117.824 57.984 49.088 50.24 49.088 113.856 0 91.072-55.04 140.544-24.512 22.016-58.112 33.728h-0.064q-3.776 1.344-7.232 3.2-3.52 1.92-6.72 4.224-3.2 2.432-5.888 5.248-2.816 2.816-5.12 6.08-2.24 3.2-4.032 6.784-1.792 3.52-3.008 7.296-1.152 3.776-1.792 7.68-0.64 3.904-0.64 7.872 0 5.12 1.024 9.984 0.96 4.992 2.88 9.6 1.92 4.672 4.736 8.896 2.816 4.16 6.4 7.744 3.584 3.584 7.744 6.4 4.224 2.752 8.832 4.672 4.672 1.92 9.6 2.944 4.992 0.96 10.048 0.96 8.64 0 16.832-2.816h0.064q53.12-18.56 92.928-54.4Q1024 680.256 1024 543.616q0-105.344-78.272-185.408-62.464-64-145.664-82.56-28.928-82.56-92.992-138.688Q623.872 64 512 64T316.928 136.896q-64.064 56.128-92.992 138.688-83.2 18.56-145.664 82.56Q0 438.144 0 543.552q0 136.704 88.96 216.704 39.872 35.84 92.992 54.336z" p-id="3086"></path><path d="M570.304 522.24l124.608 127.616a31.232 31.232 0 0 1-1.6 45.44 34.56 34.56 0 0 1-23.04 8.704H545.728A32.96 32.96 0 0 1 512 671.808V544.192C512 526.4 527.104 512 545.664 512c9.344 0 18.304 3.712 24.64 10.24z" p-id="3087"></path><path d="M592 608a48 48 0 0 1 6.528 95.552L592 704h-224a48 48 0 0 1-6.528-95.552L368 608h224z" p-id="3088"></path><path d="M453.696 949.76l-124.608-127.616a31.232 31.232 0 0 1 1.6-45.44 34.56 34.56 0 0 1 23.04-8.704h124.608c18.56 0 33.664 14.4 33.664 32.192v127.616a32.96 32.96 0 0 1-33.664 32.192 34.432 34.432 0 0 1-24.64-10.24z" p-id="3089"></path><path d="M432 864a48 48 0 0 1-6.528-95.552L432 768h224a48 48 0 0 1 6.528 95.552l-6.528 0.448h-224z" p-id="3090"></path></svg>