<?xml version="1.0" standalone="no"?><!DOCTYPE svg PUBLIC "-//W3C//DTD SVG 1.1//EN" "http://www.w3.org/Graphics/SVG/1.1/DTD/svg11.dtd"><svg t="1751078039572" class="icon" viewBox="0 0 1024 1024" version="1.1" xmlns="http://www.w3.org/2000/svg" p-id="3125" xmlns:xlink="http://www.w3.org/1999/xlink" width="200" height="200"><path d="M277.333333 366.933333h251.733334v42.666667h-251.733334z" fill="#B4BBBF" p-id="3126"></path><path d="M260.266667 704c-12.8 0-21.333333-8.533333-21.333334-21.333333V256c0-12.8 8.533333-21.333333 21.333334-21.333333s21.333333 8.533333 21.333333 21.333333v426.666667c0 12.8-8.533333 21.333333-21.333333 21.333333z" fill="#B4BBBF" p-id="3127"></path><path d="M563.2 678.4v8.533333c0 8.533333-8.533333 17.066667-17.066667 17.066667H256c-8.533333 0-17.066667-8.533333-17.066667-17.066667v-8.533333c0-8.533333 8.533333-17.066667 17.066667-17.066667h290.133333c8.533333-4.266667 17.066667 4.266667 17.066667 17.066667zM755.2 281.6h-196.266667c-17.066667 0-29.866667 17.066667-29.866666 29.866667v149.333333c0 17.066667 17.066667 29.866667 29.866666 29.866667h187.733334c21.333333 0 29.866667-8.533333 34.133333-29.866667V311.466667c4.266667-17.066667-12.8-29.866667-25.6-29.866667z m-12.8 166.4s0 4.266667 0 0l-166.4 4.266667c-4.266667 0-4.266667 0-4.266667-4.266667V328.533333c0-4.266667 0-4.266667 4.266667-4.266666h162.133333c4.266667 0 4.266667 0 4.266667 4.266666v119.466667z" fill="#B4BBBF" p-id="3128"></path><path d="M755.2 576h-196.266667c-17.066667 0-29.866667 17.066667-29.866666 29.866667v149.333333c0 17.066667 17.066667 29.866667 29.866666 29.866667h187.733334c21.333333 0 29.866667-8.533333 34.133333-29.866667V605.866667c4.266667-12.8-12.8-29.866667-25.6-29.866667z m-12.8 166.4s0 4.266667 0 0l-166.4 4.266667c-4.266667 0-4.266667 0-4.266667-4.266667V622.933333c0-4.266667 0-4.266667 4.266667-4.266666h162.133333c4.266667 0 4.266667 0 4.266667 4.266666v119.466667z" fill="#B4BBBF" p-id="3129"></path></svg>