<?xml version="1.0" standalone="no"?><!DOCTYPE svg PUBLIC "-//W3C//DTD SVG 1.1//EN" "http://www.w3.org/Graphics/SVG/1.1/DTD/svg11.dtd"><svg t="1750475896927" class="icon" viewBox="0 0 1024 1024" version="1.1" xmlns="http://www.w3.org/2000/svg" p-id="2501" xmlns:xlink="http://www.w3.org/1999/xlink" width="200" height="200"><path d="M281.6 153.6 221.866667 93.866667C119.466667 170.666667 51.2 290.133333 42.666667 426.666667l85.333333 0C136.533333 311.466667 192 213.333333 281.6 153.6zM853.333333 426.666667l85.333333 0c-8.533333-136.533333-72.533333-256-174.933333-332.8l-59.733333 59.733333C789.333333 213.333333 844.8 311.466667 853.333333 426.666667zM768 448c0-132.266667-89.6-238.933333-213.333333-268.8L554.666667 149.333333C554.666667 115.2 524.8 85.333333 490.666667 85.333333 456.533333 85.333333 426.666667 115.2 426.666667 149.333333l0 29.866667c-123.733333 29.866667-213.333333 136.533333-213.333333 268.8L213.333333 682.666667l-85.333333 85.333333 0 42.666667 725.333333 0 0-42.666667-85.333333-85.333333L768 448zM490.666667 938.666667c4.266667 0 12.8 0 17.066667 0 29.866667-4.266667 51.2-25.6 59.733333-51.2 4.266667-8.533333 8.533333-21.333333 8.533333-34.133333l-170.666667 0C405.333333 900.266667 443.733333 938.666667 490.666667 938.666667z" p-id="2502"></path></svg>