<?xml version="1.0" standalone="no"?><!DOCTYPE svg PUBLIC "-//W3C//DTD SVG 1.1//EN" "http://www.w3.org/Graphics/SVG/1.1/DTD/svg11.dtd"><svg t="1750472344846" class="icon" viewBox="0 0 1024 1024" version="1.1" xmlns="http://www.w3.org/2000/svg" p-id="1527" xmlns:xlink="http://www.w3.org/1999/xlink" width="200" height="200"><path d="M86.016 757.76L40.96 950.272c-4.096 12.288 0 28.672 12.288 40.96 12.288 12.288 24.576 12.288 40.96 8.192L270.336 942.08c73.728 40.96 155.648 65.536 241.664 65.536 270.336 0 491.52-221.184 491.52-491.52s-221.184-491.52-491.52-491.52-491.52 221.184-491.52 491.52c0 81.92 24.576 167.936 65.536 241.664z m466.944-16.384c-4.096 4.096-8.192 8.192-12.288 8.192-4.096 0-12.288 4.096-16.384 4.096-4.096 0-12.288 0-16.384-4.096-4.096-4.096-8.192-4.096-12.288-8.192-4.096-4.096-8.192-8.192-8.192-12.288s-4.096-12.288-4.096-16.384 0-12.288 4.096-16.384c4.096-4.096 4.096-8.192 8.192-12.288 4.096-4.096 8.192-8.192 12.288-8.192 12.288-4.096 20.48-4.096 32.768 0 4.096 0 8.192 4.096 12.288 8.192 8.192 8.192 12.288 16.384 12.288 28.672 0 8.192-4.096 20.48-12.288 28.672z m-28.672-491.52c81.92 0 147.456 65.536 147.456 147.456 0 65.536-45.056 122.88-106.496 139.264v49.152c0 20.48-20.48 40.96-40.96 40.96-24.576 0-40.96-20.48-40.96-40.96v-86.016c0-24.576 16.384-40.96 40.96-40.96 36.864 0 65.536-28.672 65.536-65.536 0-36.864-28.672-65.536-65.536-65.536-36.864 0-65.536 28.672-65.536 65.536 0 20.48-20.48 40.96-40.96 40.96-24.576 0-40.96-20.48-40.96-40.96 0-77.824 65.536-143.36 147.456-143.36z" p-id="1528"></path></svg>