<?xml version="1.0" standalone="no"?>
<!DOCTYPE svg PUBLIC "-//W3C//DTD SVG 20010904//EN"
 "http://www.w3.org/TR/2001/REC-SVG-20010904/DTD/svg10.dtd">
<svg version="1.0" xmlns="http://www.w3.org/2000/svg"
 width="233.000000pt" height="217.000000pt" viewBox="0 0 233.000000 217.000000"
 preserveAspectRatio="xMidYMid meet">

<g transform="translate(0.000000,217.000000) scale(0.100000,-0.100000)"
fill="#000000" stroke="none">
<path d="M303 2114 c-57 -21 -126 -84 -154 -141 l-24 -48 0 -830 0 -830 24
-48 c30 -61 108 -131 163 -146 32 -9 253 -11 858 -9 l815 3 46 27 c54 32 102
83 127 136 16 34 17 100 20 847 2 730 1 814 -14 862 -20 63 -70 124 -132 161
l-47 27 -820 2 c-705 1 -826 0 -862 -13z m1688 -117 c18 -12 44 -40 56 -62
l23 -40 0 -795 0 -796 -22 -44 c-27 -52 -60 -78 -114 -90 -51 -12 -1517 -12
-1568 0 -54 12 -87 38 -114 90 l-22 44 0 791 0 791 23 44 c12 25 37 55 56 67
l34 23 807 0 807 0 34 -23z"/>
<path d="M743 1658 l-132 -132 -55 52 c-62 59 -96 67 -122 27 -9 -14 -13 -32
-9 -44 6 -20 168 -171 183 -171 22 1 64 39 194 174 78 82 144 157 146 168 5
25 -25 58 -52 58 -14 0 -68 -46 -153 -132z"/>
<path d="M1082 1643 c-25 -10 -34 -53 -17 -79 l15 -24 385 0 c370 0 385 1 395
19 16 31 12 59 -12 75 -19 14 -72 16 -388 15 -201 0 -371 -3 -378 -6z"/>
<path d="M744 1165 l-131 -136 -62 56 c-34 30 -68 55 -76 55 -20 0 -55 -36
-55 -57 0 -27 164 -183 192 -183 33 0 338 311 338 345 0 25 -33 55 -60 55 -8
0 -74 -61 -146 -135z"/>
<path d="M1075 1135 c-14 -13 -25 -29 -25 -35 0 -6 11 -22 25 -35 l24 -25 358
0 c401 0 408 1 408 60 0 59 -7 60 -408 60 l-358 0 -24 -25z"/>
<path d="M741 668 l-129 -133 -56 53 c-65 61 -99 67 -126 20 -15 -28 -15 -28
70 -113 63 -63 91 -85 110 -85 36 0 340 306 340 342 0 32 -18 48 -52 48 -23 0
-52 -25 -157 -132z"/>
<path d="M1065 636 c-18 -27 -7 -69 20 -80 9 -3 180 -6 379 -6 311 0 365 2
384 16 24 17 30 62 10 82 -9 9 -110 12 -395 12 l-383 0 -15 -24z"/>
</g>
</svg>
