<?xml version="1.0" standalone="no"?><!DOCTYPE svg PUBLIC "-//W3C//DTD SVG 1.1//EN" "http://www.w3.org/Graphics/SVG/1.1/DTD/svg11.dtd"><svg t="1751078105913" class="icon" viewBox="0 0 1024 1024" version="1.1" xmlns="http://www.w3.org/2000/svg" p-id="4143" xmlns:xlink="http://www.w3.org/1999/xlink" width="200" height="200"><path d="M832.79 256.499c-12.19-12.19-28.29-18.903-45.33-18.903-1.15 0-2.33 0.033-3.495 0.097l-233.879 11.7c-15.988 0.783-31.036 7.459-42.375 18.798L252.482 523.408c-20.03 20.02-31.06 46.732-31.06 75.214 0 28.486 11.032 55.195 31.062 75.206l162.941 162.954c20.058 20.057 46.767 31.102 75.207 31.102 28.453 0 55.17-11.045 75.226-31.102l255.207-255.227c11.308-11.308 17.99-26.355 18.818-42.373l11.682-233.864c0.919-18.158-5.925-35.95-18.776-48.82zM490.637 822.756c-16.374 0-31.748-6.356-43.287-17.897L284.407 641.896c-11.498-11.498-17.832-26.866-17.832-43.273 0-16.409 6.334-31.785 17.832-43.295l255.244-255.232a19.366 19.366 0 0 1 12.69-5.613l233.95-11.704c0.003 0 0.536-0.014 0.739-0.014 7.488 0 12.14 3.939 13.818 5.656 2.262 2.264 6.002 7.176 5.626 14.634l-11.683 233.88a19.51 19.51 0 0 1-5.648 12.696L533.935 804.863c-11.55 11.538-26.927 17.893-43.297 17.893z m151.84-440.414c-17.656 0-34.247 6.87-46.714 19.346-12.489 12.486-19.366 29.082-19.366 46.729 0 17.649 6.877 34.242 19.366 46.721 12.481 12.484 29.076 19.359 46.728 19.359 17.64 0 34.23-6.875 46.715-19.358 25.765-25.765 25.765-67.687 0.001-93.45-12.469-12.477-29.065-19.347-46.73-19.347z m19.667 85.742c-4.952 4.956-12.113 7.8-19.647 7.8-7.542 0-14.714-2.844-19.677-7.803-5.259-5.259-8.155-12.242-8.155-19.664 0-7.425 2.897-14.411 8.158-19.672 5.24-5.245 12.218-8.132 19.654-8.132 7.444 0 14.43 2.888 19.67 8.135 5.241 5.241 8.128 12.225 8.128 19.667s-2.887 14.425-8.131 19.669z" p-id="4144"></path></svg>