<?xml version="1.0" standalone="no"?><!DOCTYPE svg PUBLIC "-//W3C//DTD SVG 1.1//EN" "http://www.w3.org/Graphics/SVG/1.1/DTD/svg11.dtd"><svg t="1750583485343" class="icon" viewBox="0 0 1024 1024" version="1.1" xmlns="http://www.w3.org/2000/svg" p-id="2773" xmlns:xlink="http://www.w3.org/1999/xlink" width="200" height="200"><path d="M300.2 417.1V309c-41.8-9.5-71.9-24-91.4-43.4-19.5-19.5-29-43.4-29-71.3 0-28.4 11.1-51.8 32.9-71.3 21.7-18.9 51.2-30.1 87.5-32.9V64.5h46.2v25.6c34 3.3 61.3 12.8 81.3 27.9 20.1 15.6 32.9 36.2 38.4 61.8l-80.8 8.9c-5-20.1-17.8-34-38.4-41.2v100.8c51.2 11.1 86.3 25.6 104.7 43.4 18.4 17.8 27.9 40.7 27.9 68.5 0 31.2-11.7 57.4-35.1 78.5-23.4 21.2-55.7 34.5-97.5 40.1v47.9h-46.2v-47.3c-36.8-3.3-66.3-14.5-89.7-32.9s-37.9-44.6-44-78l83-7.8c3.3 13.9 10 25.6 18.9 35.7 9.6 9 20.2 16.2 31.3 20.7zM591 824.3h105.8v-31.2H591v-36.2h84.7L564.3 588.1h83l90.2 136.5 89.1-136.5H909L798.8 756.9h101.9v36.2H779.8v31.2h120.9v36.2H779.8v98.6h-83v-98.6H591v-36.2z m-472.9-40.1h41.2c-1.1-10-1.7-20.1-1.1-30.1h-40.1V719h44.6c16.7-81.9 82.4-152.6 196.1-152.6 56.3 0 107.5 22.3 144.3 57.9 5 4.5 9.5 9.5 13.4 14.5l-56.8 32.3c-1.7-1.7-3.3-3.9-5-5.6-24.5-24-58.5-39-95.8-39-66.3 1.1-106.4 41.8-121.4 91.9h182.2v35.1H231.2c-0.6 10 0 20.1 1.1 30.1h187.2v35.1H241.2c17.3 44.6 56.3 78.5 117.5 77.4 30.1 0 57.9-9.5 80.8-26.2l54.6 37.3c-36.2 31.2-83.6 50.1-135.4 50.1-107.5 0-171.6-62.9-192.7-138.7h-47.9v-34.4z m438.4-485.7h31.2c-9.5-19.5-15.6-40.7-17.8-61.3-2.8-27.3 2.2-54.6 16.2-78.5 15-25.6 39.5-46.8 75.8-59.6 19.5-7.2 41.8-11.7 66.8-13.4 34.5-2.2 69.6 4.5 99.2 18.9 28.4 13.9 52.4 35.1 66.3 62.4l-75.8 25.1c-7.2-13.9-18.9-24-32.9-31.2-15-7.2-32.9-10.6-50.7-9.5-16.2 1.1-29.5 3.9-40.1 7.8-17.3 6.1-28.4 16.2-35.1 27.3-7.8 12.8-10 29-8.4 45.7 1.7 16.7 7.2 34 16.2 49.6 3.3 5.6 6.1 11.1 8.9 17.3H791v36.2h-99.2c5.6 16.7 8.4 34 7.8 51.8 0 4.5-0.6 8.9-1.7 13.4 1.1 0 2.8 0.6 3.9 0.6 38.4 5 64.1 15 85.2 23.4 18.9 7.2 30.6 11.7 54.6-7.2l57.4 47.3c-65.2 51.8-96.4 39.6-147.6 19.5-16.7-6.7-36.2-13.9-63.5-17.8-12.3-1.7-28.4 6.1-41.2 13.4-7.8 6.1-16.2 11.7-25.6 17.3l-51.8-52.4s7.8-6.1 21.2-14.5c18.9-15 26.2-31.2 27.3-46.8 0.6-15.6-3.9-32.3-11.1-49H557v-35.7l-0.5-0.1zM300.2 146.4c-12.8 3.3-22.3 9.5-29.5 17.8-7.2 8.4-11.1 17.3-11.1 27.3 0 8.9 3.3 17.8 10 25.6s16.7 13.9 30.6 18.9v-89.6zM347 421c16.2-2.8 29-8.9 39-18.4s15-20.6 15-33.4c0-11.7-4.5-21.2-12.8-29.5-8.4-8.4-22.3-14.5-41.8-19.5V421h0.6z" p-id="2774"></path></svg>